<mxfile host="65bd71144e">
    <diagram id="EAoW1hfBXHFT-SqL8OPS" name="Page-1">
        <mxGraphModel dx="1568" dy="699" grid="1" gridSize="10" guides="1" tooltips="1" connect="1" arrows="1" fold="1" page="1" pageScale="1" pageWidth="1100" pageHeight="850" math="0" shadow="0">
            <root>
                <mxCell id="0"/>
                <mxCell id="1" parent="0"/>
                <mxCell id="33" value="" style="edgeStyle=none;html=1;" parent="1" source="2" target="3" edge="1">
                    <mxGeometry relative="1" as="geometry"/>
                </mxCell>
                <mxCell id="34" style="edgeStyle=none;html=1;exitX=0.5;exitY=1;exitDx=0;exitDy=0;entryX=0;entryY=0.5;entryDx=0;entryDy=0;" parent="1" source="2" target="4" edge="1">
                    <mxGeometry relative="1" as="geometry"/>
                </mxCell>
                <mxCell id="2" value="User Msg" style="ellipse;whiteSpace=wrap;html=1;" parent="1" vertex="1">
                    <mxGeometry x="20" y="230" width="90" height="60" as="geometry"/>
                </mxCell>
                <mxCell id="36" value="event/msg" style="edgeStyle=none;html=1;exitX=1;exitY=0.5;exitDx=0;exitDy=0;entryX=0;entryY=0.5;entryDx=0;entryDy=0;" parent="1" source="3" target="5" edge="1">
                    <mxGeometry relative="1" as="geometry"/>
                </mxCell>
                <mxCell id="3" value="Gateway" style="rounded=1;whiteSpace=wrap;html=1;" parent="1" vertex="1">
                    <mxGeometry x="180" y="235" width="100" height="50" as="geometry"/>
                </mxCell>
                <mxCell id="35" style="edgeStyle=none;html=1;exitX=0.5;exitY=0;exitDx=0;exitDy=0;entryX=0.5;entryY=1;entryDx=0;entryDy=0;" parent="1" source="4" target="3" edge="1">
                    <mxGeometry relative="1" as="geometry"/>
                </mxCell>
                <mxCell id="4" value="telegram roboter" style="rounded=1;whiteSpace=wrap;html=1;" parent="1" vertex="1">
                    <mxGeometry x="180" y="340" width="100" height="50" as="geometry"/>
                </mxCell>
                <mxCell id="37" style="edgeStyle=none;html=1;exitX=1;exitY=0.5;exitDx=0;exitDy=0;entryX=0;entryY=0.5;entryDx=0;entryDy=0;" parent="1" source="5" target="7" edge="1">
                    <mxGeometry relative="1" as="geometry">
                        <Array as="points">
                            <mxPoint x="520" y="350"/>
                        </Array>
                    </mxGeometry>
                </mxCell>
                <mxCell id="5" value="Workflow&lt;br&gt;@docker" style="rounded=1;whiteSpace=wrap;html=1;" parent="1" vertex="1">
                    <mxGeometry x="390" y="230" width="100" height="60" as="geometry"/>
                </mxCell>
                <mxCell id="6" value="LLM&lt;br&gt;ComputeNode&lt;br&gt;Run in VM" style="rounded=1;whiteSpace=wrap;html=1;" parent="1" vertex="1">
                    <mxGeometry x="485" y="40" width="100" height="50" as="geometry"/>
                </mxCell>
                <mxCell id="7" value="Agent@docker" style="rounded=1;whiteSpace=wrap;html=1;" parent="1" vertex="1">
                    <mxGeometry x="560" y="330" width="100" height="70" as="geometry"/>
                </mxCell>
                <mxCell id="8" value="LLM ComputeNode&lt;br&gt;Run in docker" style="rounded=1;whiteSpace=wrap;html=1;" parent="1" vertex="1">
                    <mxGeometry x="355" y="40" width="100" height="50" as="geometry"/>
                </mxCell>
                <mxCell id="10" value="Node Client" style="shape=process;whiteSpace=wrap;html=1;backgroundOutline=1;" parent="1" vertex="1">
                    <mxGeometry x="405" y="200" width="70" height="30" as="geometry"/>
                </mxCell>
                <mxCell id="11" value="Node Client" style="shape=process;whiteSpace=wrap;html=1;backgroundOutline=1;" parent="1" vertex="1">
                    <mxGeometry x="575" y="300" width="70" height="30" as="geometry"/>
                </mxCell>
                <mxCell id="13" value="FileSystem" style="shape=cylinder3;whiteSpace=wrap;html=1;boundedLbl=1;backgroundOutline=1;size=15;" parent="1" vertex="1">
                    <mxGeometry x="195" y="700" width="120" height="80" as="geometry"/>
                </mxCell>
                <mxCell id="14" value="Object Store" style="shape=cylinder3;whiteSpace=wrap;html=1;boundedLbl=1;backgroundOutline=1;size=15;" parent="1" vertex="1">
                    <mxGeometry x="345" y="700" width="120" height="80" as="geometry"/>
                </mxCell>
                <mxCell id="15" value="RDB" style="shape=cylinder3;whiteSpace=wrap;html=1;boundedLbl=1;backgroundOutline=1;size=15;" parent="1" vertex="1">
                    <mxGeometry x="495" y="700" width="120" height="80" as="geometry"/>
                </mxCell>
                <mxCell id="16" value="VDB" style="shape=cylinder3;whiteSpace=wrap;html=1;boundedLbl=1;backgroundOutline=1;size=15;" parent="1" vertex="1">
                    <mxGeometry x="645" y="700" width="120" height="80" as="geometry"/>
                </mxCell>
                <mxCell id="17" value="Zone States:" style="text;html=1;strokeColor=none;fillColor=none;align=center;verticalAlign=middle;whiteSpace=wrap;rounded=0;" parent="1" vertex="1">
                    <mxGeometry x="110" y="710" width="70" height="80" as="geometry"/>
                </mxCell>
                <mxCell id="32" value="" style="edgeStyle=none;html=1;" parent="1" source="18" target="3" edge="1">
                    <mxGeometry relative="1" as="geometry"/>
                </mxCell>
                <mxCell id="18" value="Environment" style="shape=parallelogram;perimeter=parallelogramPerimeter;whiteSpace=wrap;html=1;fixedSize=1;" parent="1" vertex="1">
                    <mxGeometry x="167.5" y="80" width="125" height="60" as="geometry"/>
                </mxCell>
                <mxCell id="41" value="" style="edgeStyle=none;html=1;" parent="1" source="20" target="40" edge="1">
                    <mxGeometry relative="1" as="geometry"/>
                </mxCell>
                <mxCell id="20" value="Functions" style="rounded=0;whiteSpace=wrap;html=1;" parent="1" vertex="1">
                    <mxGeometry x="575" y="400" width="70" height="40" as="geometry"/>
                </mxCell>
                <mxCell id="21" value="Functions" style="rounded=0;whiteSpace=wrap;html=1;" parent="1" vertex="1">
                    <mxGeometry x="405" y="290" width="70" height="40" as="geometry"/>
                </mxCell>
                <mxCell id="23" value="email-spieder" style="rounded=1;whiteSpace=wrap;html=1;" parent="1" vertex="1">
                    <mxGeometry x="220" y="600" width="100" height="50" as="geometry"/>
                </mxCell>
                <mxCell id="25" value="embading pipline" style="rounded=1;whiteSpace=wrap;html=1;" parent="1" vertex="1">
                    <mxGeometry x="357.5" y="600" width="155" height="50" as="geometry"/>
                </mxCell>
                <mxCell id="27" value="Workflow,Agent,Env这3个概念都是主机无关的，只要能访问到其状态，任意Zone主机运行都可以" style="text;html=1;strokeColor=none;fillColor=none;align=center;verticalAlign=middle;whiteSpace=wrap;rounded=0;" parent="1" vertex="1">
                    <mxGeometry x="558" y="180" width="212" height="50" as="geometry"/>
                </mxCell>
                <mxCell id="38" value="Workflow's&lt;br&gt;state" style="shape=note;whiteSpace=wrap;html=1;backgroundOutline=1;darkOpacity=0.05;size=21;" parent="1" vertex="1">
                    <mxGeometry x="415" y="345" width="60" height="80" as="geometry"/>
                </mxCell>
                <mxCell id="39" value="Agent's&lt;br&gt;state" style="shape=note;whiteSpace=wrap;html=1;backgroundOutline=1;darkOpacity=0.05;size=21;" parent="1" vertex="1">
                    <mxGeometry x="585" y="450" width="60" height="80" as="geometry"/>
                </mxCell>
                <mxCell id="40" value="ComputeNode&lt;br&gt;Run in docker" style="rounded=1;whiteSpace=wrap;html=1;" parent="1" vertex="1">
                    <mxGeometry x="740" y="395" width="100" height="50" as="geometry"/>
                </mxCell>
                <mxCell id="42" value="LLM&lt;br&gt;ComputeNode&lt;br&gt;Run on Cloud" style="rounded=1;whiteSpace=wrap;html=1;" parent="1" vertex="1">
                    <mxGeometry x="615" y="40" width="100" height="50" as="geometry"/>
                </mxCell>
                <mxCell id="46" style="edgeStyle=none;html=1;exitX=1;exitY=0.5;exitDx=0;exitDy=0;entryX=0;entryY=0.25;entryDx=0;entryDy=0;" parent="1" source="43" target="18" edge="1">
                    <mxGeometry relative="1" as="geometry"/>
                </mxCell>
                <mxCell id="43" value="Device" style="ellipse;whiteSpace=wrap;html=1;aspect=fixed;" parent="1" vertex="1">
                    <mxGeometry x="70" y="70" width="50" height="50" as="geometry"/>
                </mxCell>
                <mxCell id="45" style="edgeStyle=none;html=1;exitX=1;exitY=1;exitDx=0;exitDy=0;entryX=0.25;entryY=0;entryDx=0;entryDy=0;" parent="1" source="44" target="18" edge="1">
                    <mxGeometry relative="1" as="geometry"/>
                </mxCell>
                <mxCell id="44" value="Device" style="ellipse;whiteSpace=wrap;html=1;aspect=fixed;" parent="1" vertex="1">
                    <mxGeometry x="125" y="10" width="50" height="50" as="geometry"/>
                </mxCell>
                <mxCell id="47" value="Device" style="ellipse;whiteSpace=wrap;html=1;aspect=fixed;" parent="1" vertex="1">
                    <mxGeometry x="295" y="140" width="50" height="50" as="geometry"/>
                </mxCell>
                <mxCell id="48" value="Driver Sync Service" style="rounded=1;whiteSpace=wrap;html=1;" parent="1" vertex="1">
                    <mxGeometry x="545" y="600" width="90" height="50" as="geometry"/>
                </mxCell>
                <mxCell id="49" value="Zone backup service" style="rounded=1;whiteSpace=wrap;html=1;" parent="1" vertex="1">
                    <mxGeometry x="665" y="600" width="90" height="50" as="geometry"/>
                </mxCell>
            </root>
        </mxGraphModel>
    </diagram>
    <diagram id="gXHOratDfWrfJ3-cl-bj" name="Page-2">
        <mxGraphModel dx="1881" dy="676" grid="1" gridSize="10" guides="1" tooltips="1" connect="1" arrows="1" fold="1" page="1" pageScale="1" pageWidth="1100" pageHeight="850" math="0" shadow="0">
            <root>
                <mxCell id="0"/>
                <mxCell id="1" parent="0"/>
            </root>
        </mxGraphModel>
    </diagram>
</mxfile>